PathFileType	4	(X/Y/Z)	marker_full_rot.trc																																																				
DataRate	CameraRate	NumFrames	NumMarkers	Units	OrigDataRate	OrigDataStartFrame	OrigNumFrames																																																
512	512	10	18	m	512	94	124																																																
Frame#	Time	XIPH			STER			CLAV_SC			CLAV_AC			SCAP_CP			SCAP_AA			SCAP_TS			SCAP_IA			DELT			ARMl			EPICl			EPICm			LARM_ant			LARM_post			LARM_elb			LARM_dist			STYLrad			STYLulna		
		X1	Y1	Z1	X2	Y2	Z2	X3	Y3	Z3	X4	Y4	Z4	X5	Y5	Z5	X6	Y6	Z6	X7	Y7	Z7	X8	Y8	Z8	X9	Y9	Z9	X10	Y10	Z10	X11	Y11	Z11	X12	Y12	Z12	X13	Y13	Z13	X14	Y14	Z14	X15	Y15	Z15	X16	Y16	Z16	X17	Y17	Z17	X18	Y18	Z18
																																																							
94	0.181463414634146	0.783872192382813	-0.364280364990234	0.547073669433594	0.779091247558594	-0.331544189453125	0.695442810058594	0.758688049316406	-0.317886016845703	0.713738342285156	0.5863671875	-0.266581665039062	0.713096618652344	0.648239807128906	-0.298671691894531	0.688903442382813	0.557616149902344	-0.244466339111328	0.705076721191406	0.680905883789063	-0.140912460327148	0.707702209472656	0.658785583496094	-0.122297966003418	0.572554321289062	0.511001312255859	-0.382752166748047	0.560706237792969	0.503859527587891	-0.4126181640625	0.53736767578125	0.496307441711426	-0.442416038513184	0.474606437683106	0.547310791015625	-0.456945129394531	0.436393707275391	0.537142395019531	-0.545545837402344	0.457666290283203	0.468673004150391	-0.53236962890625	0.431992980957031	0.497465362548828	-0.500680145263672	0.412442413330078	0.471723846435547	-0.62376416015625	0.441133117675781	0.460630065917969	-0.730619140625	0.394677764892578	0.441339233398437	-0.698914123535156	0.357021850585937
95	0.183414634146341	0.783923889160156	-0.364020385742187	0.547240234375	0.77912890625	-0.331224792480469	0.695643005371094	0.75878271484375	-0.317509857177734	0.714087219238281	0.58711279296875	-0.266154266357422	0.714767028808594	0.648698181152344	-0.298682250976562	0.690552490234375	0.557917602539063	-0.244459060668945	0.706877197265625	0.680510803222656	-0.140655487060547	0.707860961914063	0.658306457519531	-0.123227676391602	0.572818908691406	0.510813629150391	-0.386892120361328	0.567532287597656	0.503826690673828	-0.417565704345703	0.545295959472656	0.496177992502848	-0.447735749562581	0.484568752288818	0.546276489257812	-0.465019256591797	0.445245513916016	0.537163757324219	-0.553168090820313	0.470249389648437	0.468263854980469	-0.541459411621094	0.444798553466797	0.496331207275391	-0.510079681396484	0.423838287353516	0.471976623535156	-0.632487487792969	0.457136840820313	0.461080230712891	-0.741016357421875	0.414789611816406	0.441765106201172	-0.710754028320313	0.376125671386719
96	0.185365853658537	0.784020629882813	-0.363849548339844	0.547457885742188	0.779251159667969	-0.330930786132812	0.695906677246094	0.758911010742188	-0.317195129394531	0.714418151855469	0.587055541992187	-0.266239807128906	0.716542114257813	0.648927124023438	-0.298449890136719	0.692017272949219	0.558223571777344	-0.244330932617187	0.70871826171875	0.680256225585938	-0.140531692504883	0.707949035644531	0.657649108886719	-0.12370581817627	0.573155944824219	0.510701507568359	-0.390801635742188	0.574507202148438	0.503806701660156	-0.422242919921875	0.553469604492187	0.496048543294271	-0.453055460611979	0.494531066894531	0.5454658203125	-0.473636810302734	0.455208679199219	0.537247985839844	-0.560368896484375	0.482953277587891	0.468005950927734	-0.550018188476563	0.457860900878906	0.495916381835938	-0.519470092773438	0.435533660888672	0.472271453857422	-0.640541198730469	0.473436920166016	0.461490905761719	-0.750645935058594	0.435213714599609	0.441967163085937	-0.721954223632813	0.395567077636719
97	0.187317073170732	0.784171752929687	-0.3637998046875	0.54766064453125	0.779378967285156	-0.330688995361328	0.6961484375	0.759033264160156	-0.316952453613281	0.714778747558594	0.588728454589844	-0.265448059082031	0.717608947753906	0.649254028320313	-0.298443908691406	0.693645751953125	0.558632873535156	-0.244360778808594	0.710548950195313	0.679949890136719	-0.140459487915039	0.708034423828125	0.657161315917969	-0.124618995666504	0.5732548828125	0.510607391357422	-0.394529937744141	0.581562683105469	0.503581390380859	-0.426771087646484	0.561676025390625	0.495919094085693	-0.458375171661377	0.504493381500244	0.544770080566406	-0.480981414794922	0.464959777832031	0.537331298828125	-0.567049011230469	0.495839508056641	0.467752227783203	-0.55810009765625	0.471099456787109	0.495351135253906	-0.528196044921875	0.447424041748047	0.472747375488281	-0.647947631835937	0.489956756591797	0.462283538818359	-0.759473266601563	0.455849365234375	0.442512481689453	-0.732385009765625	0.415264282226562
98	0.189268292682927	0.784226196289063	-0.363668762207031	0.547804809570313	0.779511474609375	-0.330458831787109	0.696394958496094	0.759161926269531	-0.316600738525391	0.714999633789062	0.58815625	-0.265755523681641	0.719740905761719	0.649609497070312	-0.298449279785156	0.69527392578125	0.558841552734375	-0.244395370483398	0.712321533203125	0.679661682128906	-0.140454010009766	0.708114440917969	0.656567260742188	-0.125019157409668	0.573504760742187	0.510578033447266	-0.397921661376953	0.588709655761719	0.503557434082031	-0.430929534912109	0.5699970703125	0.495789644877116	-0.463694882710775	0.514455696105957	0.544153381347656	-0.488540313720703	0.475388763427734	0.537431274414062	-0.573270812988281	0.508884979248047	0.467559295654297	-0.565694030761719	0.484561859130859	0.4944306640625	-0.536380249023437	0.459315643310547	0.473430725097656	-0.654678527832031	0.506689849853516	0.463052612304687	-0.767608520507813	0.476500732421875	0.443029144287109	-0.742087341308594	0.435100646972656
99	0.191219512195122	0.784318969726563	-0.363478271484375	0.547902404785156	0.779677124023437	-0.330411468505859	0.696679931640625	0.759244140625	-0.316403717041016	0.715297180175781	0.588758117675781	-0.265074584960937	0.721096557617187	0.6499296875	-0.298487579345703	0.696872131347656	0.559235778808594	-0.244418121337891	0.714150207519531	0.679416320800781	-0.140455352783203	0.708235046386719	0.655986206054688	-0.12590062713623	0.573916625976563	0.510488800048828	-0.401200408935547	0.595901062011719	0.503447509765625	-0.434819427490234	0.578440246582031	0.495660195668538	-0.469014593760173	0.52441801071167	0.543407592773437	-0.495361938476562	0.485823150634766	0.537693237304688	-0.579017272949219	0.521916198730469	0.467504455566406	-0.572763244628906	0.49814306640625	0.493891906738281	-0.544212463378906	0.471640930175781	0.473875061035156	-0.661048950195313	0.523226440429687	0.463975433349609	-0.774929077148437	0.497270111083984	0.443481842041016	-0.751081909179688	0.455038909912109
100	0.193170731707317	0.784436706542969	-0.363448974609375	0.548030944824219	0.779767944335937	-0.330384124755859	0.696897583007812	0.75935205078125	-0.316285095214844	0.715593383789063	0.589352355957031	-0.264998611450195	0.722725677490234	0.650185302734375	-0.298602355957031	0.698449157714844	0.559535888671875	-0.24443342590332	0.716006469726563	0.679105834960937	-0.140554748535156	0.708365539550781	0.655383483886719	-0.126728126525879	0.5741904296875	0.510529022216797	-0.404092987060547	0.603111572265625	0.503552276611328	-0.438351257324219	0.586900390625	0.495530746459961	-0.47433430480957	0.534380325317383	0.542756652832031	-0.501520690917969	0.495892150878906	0.537962890625	-0.584278930664063	0.534984497070312	0.467503234863281	-0.579318908691406	0.511864990234375	0.493813446044922	-0.551516967773437	0.484260375976562	0.474675903320312	-0.666624084472656	0.539920837402344	0.46506103515625	-0.781463806152344	0.518086120605469	0.444217590332031	-0.759252502441406	0.475158660888672
101	0.195121951219512	0.784572570800781	-0.363310943603516	0.548082641601563	0.77978125	-0.330234191894531	0.697133117675781	0.759408203125	-0.3162060546875	0.715867736816406	0.589946594238281	-0.264922637939453	0.724354797363281	0.650544006347656	-0.299015319824219	0.700151123046875	0.559957458496094	-0.244338317871094	0.717852966308594	0.678689819335937	-0.140656021118164	0.708535949707031	0.654837280273437	-0.127450965881348	0.574462890625	0.510674499511719	-0.406801452636719	0.610334350585937	0.503632171630859	-0.441544830322266	0.59545263671875	0.495401297251383	-0.479654015858968	0.544342639923096	0.542322998046875	-0.507580749511719	0.506651641845703	0.538468566894531	-0.589091247558594	0.54817041015625	0.467683044433594	-0.585266662597656	0.525554931640625	0.493191101074219	-0.558292663574219	0.49658154296875	0.47561767578125	-0.671597961425781	0.556547607421875	0.466308471679688	-0.787166564941406	0.538824768066406	0.4451171875	-0.766575378417969	0.495252624511719
102	0.197073170731707	0.784695434570312	-0.363299011230469	0.548218688964844	0.779897033691406	-0.330457946777344	0.697503723144531	0.759450256347656	-0.316154876708984	0.716148132324219	0.590281921386719	-0.264782592773438	0.725755981445313	0.650730224609375	-0.298814086914062	0.701592956542969	0.560128601074219	-0.244243743896484	0.719633972167969	0.678430541992188	-0.140720779418945	0.708716003417969	0.6543125	-0.128364929199219	0.574669250488281	0.510687713623047	-0.409174224853516	0.617653869628906	0.503760040283203	-0.444553436279297	0.603913879394531	0.495271848042806	-0.484973726908366	0.554304954528809	0.541876647949219	-0.513119689941406	0.517052124023437	0.539025268554687	-0.593332336425781	0.561238708496094	0.467844909667969	-0.590704956054688	0.539264465332031	0.492970977783203	-0.564571899414062	0.509089050292969	0.476681762695312	-0.675899353027344	0.573125305175781	0.467591094970703	-0.792133666992188	0.559391723632813	0.446133605957031	-0.773171142578125	0.515260131835938
103	0.199024390243902	0.784756042480469	-0.363295074462891	0.548318969726562	0.779907653808594	-0.330282562255859	0.697753356933594	0.759463134765625	-0.316079437255859	0.716374755859375	0.591274475097656	-0.263643707275391	0.727357604980469	0.651117065429687	-0.298756958007812	0.703099914550781	0.560660400390625	-0.244037872314453	0.721421508789063	0.678162353515625	-0.14079899597168	0.708874084472656	0.653752624511719	-0.129064331054688	0.574862121582031	0.510914123535156	-0.411295837402344	0.624909362792969	0.5040673828125	-0.447049591064453	0.612331970214844	0.495142398834228	-0.490293437957764	0.564267269134522	0.541659606933594	-0.518230834960937	0.527323913574219	0.539676391601563	-0.597164184570312	0.574282348632812	0.468372589111328	-0.595628967285156	0.552951538085938	0.492957672119141	-0.570409729003906	0.521641418457031	0.478056884765625	-0.679248962402344	0.589291381835937	0.468887634277344	-0.796336791992187	0.579784423828125	0.447215423583984	-0.779045349121094	0.535149536132812
